<?xml version="1.0" encoding="utf-8"?>
<!-- Generator: Adobe Illustrator 19.0.0, SVG Export Plug-In . SVG Version: 6.00 Build 0)  -->
<svg version="1.1" id="レイヤー_1" xmlns="http://www.w3.org/2000/svg" xmlns:xlink="http://www.w3.org/1999/xlink" x="0px"
	 y="0px" viewBox="-175 45 448 512" style="enable-background:new -175 45 448 512;" xml:space="preserve">
<style type="text/css">
	.st0{fill:url(#SVGID_1_);}
</style>
<linearGradient id="SVGID_1_" gradientUnits="userSpaceOnUse" x1="-170.6789" y1="85.7132" x2="279.3211" y2="526.7132">
	<stop  offset="0" style="stop-color:#4C64D3"/>
	<stop  offset="0.3333" style="stop-color:#CF2E92"/>
	<stop  offset="0.6666" style="stop-color:#F26939"/>
	<stop  offset="1" style="stop-color:#FFDD83"/>
</linearGradient>
<path class="st0" d="M49,186.1c-63.6,0-114.9,51.3-114.9,114.9S-14.6,415.9,49,415.9S163.9,364.6,163.9,301S112.6,186.1,49,186.1z
	 M49,375.7c-41.1,0-74.7-33.5-74.7-74.7S7.8,226.3,49,226.3s74.7,33.5,74.7,74.7S90.1,375.7,49,375.7L49,375.7z M195.4,181.4
	c0,14.9-12,26.8-26.8,26.8c-14.9,0-26.8-12-26.8-26.8s12-26.8,26.8-26.8S195.4,166.6,195.4,181.4z M271.5,208.6
	c-1.7-35.9-9.9-67.7-36.2-93.9c-26.2-26.2-58-34.4-93.9-36.2c-37-2.1-147.9-2.1-184.9,0c-35.8,1.7-67.6,9.9-93.9,36.1
	s-34.4,58-36.2,93.9c-2.1,37-2.1,147.9,0,184.9c1.7,35.9,9.9,67.7,36.2,93.9c26.3,26.2,58,34.4,93.9,36.2c37,2.1,147.9,2.1,184.9,0
	c35.9-1.7,67.7-9.9,93.9-36.2c26.2-26.2,34.4-58,36.2-93.9C273.6,356.4,273.6,245.6,271.5,208.6L271.5,208.6z M223.8,433.1
	c-7.8,19.6-22.9,34.7-42.6,42.6c-29.5,11.7-99.5,9-132.1,9s-102.7,2.6-132.1-9c-19.6-7.8-34.7-22.9-42.6-42.6
	c-11.7-29.5-9-99.5-9-132.1s-2.6-102.7,9-132.1c7.8-19.6,22.9-34.7,42.6-42.6c29.5-11.7,99.5-9,132.1-9s102.7-2.6,132.1,9
	c19.6,7.8,34.7,22.9,42.6,42.6c11.7,29.5,9,99.5,9,132.1S235.4,403.7,223.8,433.1z"/>
</svg>
